<mxfile host="app.diagrams.net" modified="2024-03-12T07:11:47.540Z" agent="Mozilla/5.0 (Windows NT 10.0; Win64; x64) AppleWebKit/537.36 (KHTML, like Gecko) Chrome/122.0.0.0 Safari/537.36 Edg/122.0.0.0" etag="CcLl1DFrANdx7ZlHsY_2" version="23.0.2" type="github">
  <diagram name="第 1 页" id="8-2-D_5NHPluIyXjwUSo">
    <mxGraphModel dx="2213" dy="769" grid="1" gridSize="10" guides="1" tooltips="1" connect="1" arrows="1" fold="1" page="1" pageScale="1" pageWidth="827" pageHeight="1169" math="0" shadow="0">
      <root>
        <mxCell id="0" />
        <mxCell id="1" parent="0" />
        <mxCell id="Q8LItwn8FTGjMNyWCQqq-1" value="&lt;font style=&quot;font-size: 16px;&quot;&gt;Kafka&lt;/font&gt;" style="ellipse;whiteSpace=wrap;html=1;fontSize=15;" vertex="1" parent="1">
          <mxGeometry x="330" y="80" width="100" height="50" as="geometry" />
        </mxCell>
        <mxCell id="Q8LItwn8FTGjMNyWCQqq-2" value="&lt;font style=&quot;font-size: 16px;&quot;&gt;Kafka&lt;/font&gt;" style="ellipse;whiteSpace=wrap;html=1;fontSize=15;" vertex="1" parent="1">
          <mxGeometry x="80" y="180" width="100" height="50" as="geometry" />
        </mxCell>
        <mxCell id="Q8LItwn8FTGjMNyWCQqq-3" value="&lt;font style=&quot;font-size: 16px;&quot;&gt;Kafka&lt;/font&gt;" style="ellipse;whiteSpace=wrap;html=1;fontSize=15;" vertex="1" parent="1">
          <mxGeometry x="260" y="180" width="100" height="50" as="geometry" />
        </mxCell>
        <mxCell id="Q8LItwn8FTGjMNyWCQqq-9" style="edgeStyle=orthogonalEdgeStyle;rounded=0;orthogonalLoop=1;jettySize=auto;html=1;exitX=0.5;exitY=1;exitDx=0;exitDy=0;entryX=0.5;entryY=0;entryDx=0;entryDy=0;" edge="1" parent="1" source="Q8LItwn8FTGjMNyWCQqq-4" target="Q8LItwn8FTGjMNyWCQqq-8">
          <mxGeometry relative="1" as="geometry" />
        </mxCell>
        <mxCell id="Q8LItwn8FTGjMNyWCQqq-4" value="&lt;font style=&quot;font-size: 16px;&quot;&gt;/controller&lt;/font&gt;" style="ellipse;whiteSpace=wrap;html=1;fontSize=15;" vertex="1" parent="1">
          <mxGeometry x="440" y="180" width="100" height="50" as="geometry" />
        </mxCell>
        <mxCell id="Q8LItwn8FTGjMNyWCQqq-50" style="edgeStyle=orthogonalEdgeStyle;rounded=0;orthogonalLoop=1;jettySize=auto;html=1;exitX=0.5;exitY=1;exitDx=0;exitDy=0;entryX=0.5;entryY=0;entryDx=0;entryDy=0;" edge="1" parent="1" source="Q8LItwn8FTGjMNyWCQqq-5" target="Q8LItwn8FTGjMNyWCQqq-12">
          <mxGeometry relative="1" as="geometry" />
        </mxCell>
        <mxCell id="Q8LItwn8FTGjMNyWCQqq-51" style="edgeStyle=orthogonalEdgeStyle;rounded=0;orthogonalLoop=1;jettySize=auto;html=1;exitX=0.5;exitY=1;exitDx=0;exitDy=0;" edge="1" parent="1" source="Q8LItwn8FTGjMNyWCQqq-5" target="Q8LItwn8FTGjMNyWCQqq-11">
          <mxGeometry relative="1" as="geometry" />
        </mxCell>
        <mxCell id="Q8LItwn8FTGjMNyWCQqq-5" value="&lt;font style=&quot;font-size: 16px;&quot;&gt;/brokers&lt;/font&gt;" style="ellipse;whiteSpace=wrap;html=1;fontSize=15;" vertex="1" parent="1">
          <mxGeometry x="640" y="180" width="100" height="50" as="geometry" />
        </mxCell>
        <mxCell id="Q8LItwn8FTGjMNyWCQqq-6" value="&lt;font style=&quot;font-size: 16px;&quot;&gt;/consumers&lt;br&gt;&lt;/font&gt;" style="ellipse;whiteSpace=wrap;html=1;fontSize=15;" vertex="1" parent="1">
          <mxGeometry x="-100" y="180" width="100" height="50" as="geometry" />
        </mxCell>
        <mxCell id="Q8LItwn8FTGjMNyWCQqq-7" value="&lt;font style=&quot;font-size: 16px;&quot;&gt;Kafka&lt;/font&gt;" style="ellipse;whiteSpace=wrap;html=1;fontSize=15;" vertex="1" parent="1">
          <mxGeometry x="930" y="180" width="100" height="50" as="geometry" />
        </mxCell>
        <mxCell id="Q8LItwn8FTGjMNyWCQqq-8" value="&lt;font style=&quot;font-size: 15px;&quot;&gt;存储中央控制器controller brokerid等信息&lt;/font&gt;" style="text;html=1;strokeColor=none;fillColor=none;align=center;verticalAlign=middle;whiteSpace=wrap;rounded=0;" vertex="1" parent="1">
          <mxGeometry x="410" y="260" width="110" height="40" as="geometry" />
        </mxCell>
        <mxCell id="Q8LItwn8FTGjMNyWCQqq-44" style="edgeStyle=orthogonalEdgeStyle;rounded=0;orthogonalLoop=1;jettySize=auto;html=1;exitX=0.5;exitY=1;exitDx=0;exitDy=0;" edge="1" parent="1" source="Q8LItwn8FTGjMNyWCQqq-11" target="Q8LItwn8FTGjMNyWCQqq-42">
          <mxGeometry relative="1" as="geometry" />
        </mxCell>
        <mxCell id="Q8LItwn8FTGjMNyWCQqq-45" style="edgeStyle=orthogonalEdgeStyle;rounded=0;orthogonalLoop=1;jettySize=auto;html=1;exitX=0.5;exitY=1;exitDx=0;exitDy=0;entryX=0.5;entryY=0;entryDx=0;entryDy=0;" edge="1" parent="1" source="Q8LItwn8FTGjMNyWCQqq-11" target="Q8LItwn8FTGjMNyWCQqq-43">
          <mxGeometry relative="1" as="geometry" />
        </mxCell>
        <mxCell id="Q8LItwn8FTGjMNyWCQqq-11" value="&lt;font style=&quot;font-size: 16px;&quot;&gt;/ids&lt;/font&gt;" style="ellipse;whiteSpace=wrap;html=1;fontSize=15;" vertex="1" parent="1">
          <mxGeometry x="710" y="270" width="60" height="40" as="geometry" />
        </mxCell>
        <mxCell id="Q8LItwn8FTGjMNyWCQqq-12" value="&lt;font style=&quot;font-size: 16px;&quot;&gt;/topics&lt;/font&gt;" style="ellipse;whiteSpace=wrap;html=1;fontSize=15;" vertex="1" parent="1">
          <mxGeometry x="610" y="270" width="60" height="40" as="geometry" />
        </mxCell>
        <mxCell id="Q8LItwn8FTGjMNyWCQqq-16" style="edgeStyle=orthogonalEdgeStyle;rounded=0;orthogonalLoop=1;jettySize=auto;html=1;exitX=0.5;exitY=0;exitDx=0;exitDy=0;entryX=1;entryY=0.5;entryDx=0;entryDy=0;" edge="1" parent="1" source="Q8LItwn8FTGjMNyWCQqq-13" target="Q8LItwn8FTGjMNyWCQqq-11">
          <mxGeometry relative="1" as="geometry" />
        </mxCell>
        <mxCell id="Q8LItwn8FTGjMNyWCQqq-13" value="&lt;font style=&quot;font-size: 14px;&quot;&gt;BrokerChangeListener&lt;/font&gt;" style="rounded=1;whiteSpace=wrap;html=1;" vertex="1" parent="1">
          <mxGeometry x="795" y="310" width="143" height="35" as="geometry" />
        </mxCell>
        <mxCell id="Q8LItwn8FTGjMNyWCQqq-15" value="监听" style="text;html=1;align=center;verticalAlign=middle;resizable=0;points=[];autosize=1;strokeColor=none;fillColor=none;" vertex="1" parent="1">
          <mxGeometry x="765" y="248" width="50" height="30" as="geometry" />
        </mxCell>
        <mxCell id="Q8LItwn8FTGjMNyWCQqq-18" style="edgeStyle=orthogonalEdgeStyle;rounded=0;orthogonalLoop=1;jettySize=auto;html=1;exitX=0.5;exitY=0;exitDx=0;exitDy=0;entryX=0;entryY=0.5;entryDx=0;entryDy=0;" edge="1" parent="1" source="Q8LItwn8FTGjMNyWCQqq-17" target="Q8LItwn8FTGjMNyWCQqq-12">
          <mxGeometry relative="1" as="geometry" />
        </mxCell>
        <mxCell id="Q8LItwn8FTGjMNyWCQqq-17" value="&lt;font style=&quot;font-size: 14px;&quot;&gt;TopicChangeListener&lt;/font&gt;" style="rounded=1;whiteSpace=wrap;html=1;" vertex="1" parent="1">
          <mxGeometry x="467" y="340" width="143" height="35" as="geometry" />
        </mxCell>
        <mxCell id="Q8LItwn8FTGjMNyWCQqq-19" value="监听" style="text;html=1;align=center;verticalAlign=middle;resizable=0;points=[];autosize=1;strokeColor=none;fillColor=none;" vertex="1" parent="1">
          <mxGeometry x="540" y="258" width="50" height="30" as="geometry" />
        </mxCell>
        <mxCell id="Q8LItwn8FTGjMNyWCQqq-27" style="edgeStyle=orthogonalEdgeStyle;rounded=0;orthogonalLoop=1;jettySize=auto;html=1;exitX=0.5;exitY=1;exitDx=0;exitDy=0;" edge="1" parent="1" source="Q8LItwn8FTGjMNyWCQqq-20" target="Q8LItwn8FTGjMNyWCQqq-26">
          <mxGeometry relative="1" as="geometry" />
        </mxCell>
        <mxCell id="Q8LItwn8FTGjMNyWCQqq-20" value="&lt;font style=&quot;font-size: 15px;&quot;&gt;topic-0&lt;/font&gt;" style="rounded=1;whiteSpace=wrap;html=1;" vertex="1" parent="1">
          <mxGeometry x="560" y="430" width="65" height="40" as="geometry" />
        </mxCell>
        <mxCell id="Q8LItwn8FTGjMNyWCQqq-21" value="&lt;font style=&quot;font-size: 15px;&quot;&gt;topic-0&lt;/font&gt;" style="rounded=1;whiteSpace=wrap;html=1;" vertex="1" parent="1">
          <mxGeometry x="645" y="430" width="65" height="40" as="geometry" />
        </mxCell>
        <mxCell id="Q8LItwn8FTGjMNyWCQqq-23" value="" style="endArrow=classic;html=1;rounded=0;exitX=0.5;exitY=1;exitDx=0;exitDy=0;entryX=0.5;entryY=0;entryDx=0;entryDy=0;" edge="1" parent="1" source="Q8LItwn8FTGjMNyWCQqq-12" target="Q8LItwn8FTGjMNyWCQqq-20">
          <mxGeometry width="50" height="50" relative="1" as="geometry">
            <mxPoint x="630" y="320" as="sourcePoint" />
            <mxPoint x="590" y="420" as="targetPoint" />
          </mxGeometry>
        </mxCell>
        <mxCell id="Q8LItwn8FTGjMNyWCQqq-25" value="" style="endArrow=classic;html=1;rounded=0;exitX=0.5;exitY=1;exitDx=0;exitDy=0;entryX=0.5;entryY=0;entryDx=0;entryDy=0;" edge="1" parent="1" source="Q8LItwn8FTGjMNyWCQqq-12" target="Q8LItwn8FTGjMNyWCQqq-21">
          <mxGeometry width="50" height="50" relative="1" as="geometry">
            <mxPoint x="650" y="325" as="sourcePoint" />
            <mxPoint x="680" y="420" as="targetPoint" />
          </mxGeometry>
        </mxCell>
        <mxCell id="Q8LItwn8FTGjMNyWCQqq-35" style="edgeStyle=orthogonalEdgeStyle;rounded=0;orthogonalLoop=1;jettySize=auto;html=1;exitX=0.5;exitY=1;exitDx=0;exitDy=0;entryX=0.5;entryY=0;entryDx=0;entryDy=0;" edge="1" parent="1" source="Q8LItwn8FTGjMNyWCQqq-26" target="Q8LItwn8FTGjMNyWCQqq-29">
          <mxGeometry relative="1" as="geometry" />
        </mxCell>
        <mxCell id="Q8LItwn8FTGjMNyWCQqq-36" style="edgeStyle=orthogonalEdgeStyle;rounded=0;orthogonalLoop=1;jettySize=auto;html=1;exitX=0.5;exitY=1;exitDx=0;exitDy=0;entryX=0.5;entryY=0;entryDx=0;entryDy=0;" edge="1" parent="1" source="Q8LItwn8FTGjMNyWCQqq-26" target="Q8LItwn8FTGjMNyWCQqq-28">
          <mxGeometry relative="1" as="geometry" />
        </mxCell>
        <mxCell id="Q8LItwn8FTGjMNyWCQqq-26" value="&lt;font style=&quot;font-size: 15px;&quot;&gt;partitions&lt;/font&gt;" style="rounded=1;whiteSpace=wrap;html=1;" vertex="1" parent="1">
          <mxGeometry x="560" y="500" width="65" height="30" as="geometry" />
        </mxCell>
        <mxCell id="Q8LItwn8FTGjMNyWCQqq-32" style="edgeStyle=orthogonalEdgeStyle;rounded=0;orthogonalLoop=1;jettySize=auto;html=1;exitX=0.5;exitY=1;exitDx=0;exitDy=0;" edge="1" parent="1" source="Q8LItwn8FTGjMNyWCQqq-28" target="Q8LItwn8FTGjMNyWCQqq-30">
          <mxGeometry relative="1" as="geometry" />
        </mxCell>
        <mxCell id="Q8LItwn8FTGjMNyWCQqq-28" value="&lt;font style=&quot;font-size: 15px;&quot;&gt;/0&lt;/font&gt;" style="rounded=1;whiteSpace=wrap;html=1;" vertex="1" parent="1">
          <mxGeometry x="546" y="550" width="34" height="30" as="geometry" />
        </mxCell>
        <mxCell id="Q8LItwn8FTGjMNyWCQqq-33" style="edgeStyle=orthogonalEdgeStyle;rounded=0;orthogonalLoop=1;jettySize=auto;html=1;exitX=0.5;exitY=1;exitDx=0;exitDy=0;" edge="1" parent="1" source="Q8LItwn8FTGjMNyWCQqq-29" target="Q8LItwn8FTGjMNyWCQqq-31">
          <mxGeometry relative="1" as="geometry" />
        </mxCell>
        <mxCell id="Q8LItwn8FTGjMNyWCQqq-29" value="&lt;font style=&quot;font-size: 15px;&quot;&gt;/n&lt;/font&gt;" style="rounded=1;whiteSpace=wrap;html=1;" vertex="1" parent="1">
          <mxGeometry x="606" y="550" width="34" height="30" as="geometry" />
        </mxCell>
        <mxCell id="Q8LItwn8FTGjMNyWCQqq-30" value="&lt;font style=&quot;font-size: 15px;&quot;&gt;state&lt;/font&gt;" style="rounded=1;whiteSpace=wrap;html=1;" vertex="1" parent="1">
          <mxGeometry x="536" y="610" width="54" height="30" as="geometry" />
        </mxCell>
        <mxCell id="Q8LItwn8FTGjMNyWCQqq-31" value="&lt;font style=&quot;font-size: 15px;&quot;&gt;state&lt;/font&gt;" style="rounded=1;whiteSpace=wrap;html=1;" vertex="1" parent="1">
          <mxGeometry x="596" y="610" width="54" height="30" as="geometry" />
        </mxCell>
        <mxCell id="Q8LItwn8FTGjMNyWCQqq-37" value="&lt;font style=&quot;font-size: 13px;&quot;&gt;持久数据节点，存储分区leader&lt;br&gt;及isr、brokerid等信息&lt;/font&gt;" style="text;html=1;align=center;verticalAlign=middle;resizable=0;points=[];autosize=1;strokeColor=none;fillColor=none;" vertex="1" parent="1">
          <mxGeometry x="500" y="710" width="200" height="40" as="geometry" />
        </mxCell>
        <mxCell id="Q8LItwn8FTGjMNyWCQqq-38" value="&lt;h1&gt;数据示例：&lt;/h1&gt;&lt;div style=&quot;font-size: 13px;&quot;&gt;&lt;div&gt;{&lt;/div&gt;&lt;div&gt;&amp;nbsp; &amp;nbsp; &quot;controller_epoch&quot;: 17,//中央控制器的总的选举次数&lt;/div&gt;&lt;div&gt;&amp;nbsp; &amp;nbsp; &quot;leader&quot;: 0,&amp;nbsp; // 该分区leader所在的brokerid&lt;/div&gt;&lt;div&gt;&amp;nbsp; &amp;nbsp; &quot;version&quot;: 1, //默认版本号&lt;/div&gt;&lt;div&gt;&amp;nbsp; &amp;nbsp; &quot;leader_epoch&quot;: 1,//此partition的leader选举的次数&lt;/div&gt;&lt;div&gt;&amp;nbsp; &amp;nbsp; &quot;isr&quot;: [&lt;/div&gt;&lt;div&gt;&amp;nbsp; &amp;nbsp; &amp;nbsp; &amp;nbsp; 0&lt;/div&gt;&lt;div&gt;&amp;nbsp; &amp;nbsp; ]&amp;nbsp; &amp;nbsp; //同步副本组brokerId顺序列表&lt;/div&gt;&lt;div&gt;}&lt;/div&gt;&lt;/div&gt;" style="text;html=1;strokeColor=none;fillColor=none;spacing=5;spacingTop=-20;whiteSpace=wrap;overflow=hidden;rounded=0;" vertex="1" parent="1">
          <mxGeometry x="435" y="790" width="380" height="200" as="geometry" />
        </mxCell>
        <mxCell id="Q8LItwn8FTGjMNyWCQqq-39" value="" style="shape=singleArrow;direction=south;whiteSpace=wrap;html=1;" vertex="1" parent="1">
          <mxGeometry x="577.5" y="660" width="30" height="30" as="geometry" />
        </mxCell>
        <mxCell id="Q8LItwn8FTGjMNyWCQqq-40" value="&lt;div class=&quot;lake-content&quot;&gt;partition索引号&lt;/div&gt;" style="text;html=1;align=center;verticalAlign=middle;resizable=0;points=[];autosize=1;strokeColor=none;fillColor=none;" vertex="1" parent="1">
          <mxGeometry x="680" y="550" width="100" height="30" as="geometry" />
        </mxCell>
        <mxCell id="Q8LItwn8FTGjMNyWCQqq-41" value="" style="endArrow=classic;html=1;rounded=0;entryX=1;entryY=0.5;entryDx=0;entryDy=0;" edge="1" parent="1" source="Q8LItwn8FTGjMNyWCQqq-40" target="Q8LItwn8FTGjMNyWCQqq-29">
          <mxGeometry width="50" height="50" relative="1" as="geometry">
            <mxPoint x="730" y="540" as="sourcePoint" />
            <mxPoint x="780" y="490" as="targetPoint" />
          </mxGeometry>
        </mxCell>
        <mxCell id="Q8LItwn8FTGjMNyWCQqq-42" value="&lt;span style=&quot;font-size: 15px;&quot;&gt;1&lt;/span&gt;" style="rounded=1;whiteSpace=wrap;html=1;" vertex="1" parent="1">
          <mxGeometry x="700" y="375" width="30" height="35" as="geometry" />
        </mxCell>
        <mxCell id="Q8LItwn8FTGjMNyWCQqq-49" style="edgeStyle=orthogonalEdgeStyle;rounded=0;orthogonalLoop=1;jettySize=auto;html=1;exitX=0.5;exitY=1;exitDx=0;exitDy=0;" edge="1" parent="1" source="Q8LItwn8FTGjMNyWCQqq-43" target="Q8LItwn8FTGjMNyWCQqq-46">
          <mxGeometry relative="1" as="geometry" />
        </mxCell>
        <mxCell id="Q8LItwn8FTGjMNyWCQqq-43" value="&lt;span style=&quot;font-size: 15px;&quot;&gt;n&lt;/span&gt;" style="rounded=1;whiteSpace=wrap;html=1;" vertex="1" parent="1">
          <mxGeometry x="765" y="375" width="30" height="35" as="geometry" />
        </mxCell>
        <mxCell id="Q8LItwn8FTGjMNyWCQqq-46" value="临时数据节点，&lt;br&gt;znode值保存broker相关信息" style="text;html=1;align=center;verticalAlign=middle;resizable=0;points=[];autosize=1;strokeColor=none;fillColor=none;" vertex="1" parent="1">
          <mxGeometry x="795" y="460" width="170" height="40" as="geometry" />
        </mxCell>
        <mxCell id="Q8LItwn8FTGjMNyWCQqq-47" value="brokerid" style="text;html=1;align=center;verticalAlign=middle;resizable=0;points=[];autosize=1;strokeColor=none;fillColor=none;" vertex="1" parent="1">
          <mxGeometry x="795" y="378" width="70" height="30" as="geometry" />
        </mxCell>
        <mxCell id="Q8LItwn8FTGjMNyWCQqq-48" value="&lt;h1&gt;数据示例：&lt;/h1&gt;&lt;div style=&quot;&quot;&gt;&lt;div style=&quot;&quot;&gt;{&lt;/div&gt;&lt;div style=&quot;&quot;&gt;&lt;span style=&quot;font-size: 13px;&quot;&gt;&amp;nbsp; &amp;nbsp; &quot;jmx_port&quot;: -1, //JMX的端口号&lt;/span&gt;&lt;/div&gt;&lt;div style=&quot;&quot;&gt;&lt;span style=&quot;font-size: 13px;&quot;&gt;&amp;nbsp; &amp;nbsp; &quot;timestamp&quot;: &quot;1460082147315&quot;,//broker启动的时间戳&lt;/span&gt;&lt;/div&gt;&lt;div style=&quot;&quot;&gt;&lt;span style=&quot;font-size: 13px;&quot;&gt;&amp;nbsp; &amp;nbsp; &quot;host&quot;: &quot;xx.xxx.xxx.xxx&quot;,//host&lt;/span&gt;&lt;/div&gt;&lt;div style=&quot;&quot;&gt;&lt;span style=&quot;font-size: 13px;&quot;&gt;&amp;nbsp; &amp;nbsp; &quot;version&quot;: 1,//默认的版本&lt;/span&gt;&lt;/div&gt;&lt;div style=&quot;&quot;&gt;&lt;span style=&quot;font-size: 13px;&quot;&gt;&amp;nbsp; &amp;nbsp; &quot;port&quot;: 9092&amp;nbsp; //broker进程的对外监听的端口号&lt;/span&gt;&lt;/div&gt;&lt;div style=&quot;&quot;&gt;&lt;span style=&quot;font-size: 13px;&quot;&gt;}&lt;/span&gt;&lt;/div&gt;&lt;/div&gt;" style="text;html=1;strokeColor=none;fillColor=none;spacing=5;spacingTop=-20;whiteSpace=wrap;overflow=hidden;rounded=0;" vertex="1" parent="1">
          <mxGeometry x="795" y="510" width="380" height="170" as="geometry" />
        </mxCell>
        <mxCell id="Q8LItwn8FTGjMNyWCQqq-52" value="老版本使用" style="text;html=1;align=center;verticalAlign=middle;resizable=0;points=[];autosize=1;strokeColor=none;fillColor=none;" vertex="1" parent="1">
          <mxGeometry x="-230" y="190" width="80" height="30" as="geometry" />
        </mxCell>
        <mxCell id="Q8LItwn8FTGjMNyWCQqq-53" value="&lt;font style=&quot;font-size: 16px;&quot;&gt;group_id 0&lt;/font&gt;" style="rounded=1;whiteSpace=wrap;html=1;" vertex="1" parent="1">
          <mxGeometry x="-150" y="270" width="85" height="40" as="geometry" />
        </mxCell>
        <mxCell id="Q8LItwn8FTGjMNyWCQqq-54" value="&lt;font style=&quot;font-size: 16px;&quot;&gt;group_id n&lt;/font&gt;" style="rounded=1;whiteSpace=wrap;html=1;" vertex="1" parent="1">
          <mxGeometry x="-10" y="270" width="85" height="40" as="geometry" />
        </mxCell>
        <mxCell id="Q8LItwn8FTGjMNyWCQqq-68" style="edgeStyle=orthogonalEdgeStyle;rounded=0;orthogonalLoop=1;jettySize=auto;html=1;exitX=0.5;exitY=1;exitDx=0;exitDy=0;" edge="1" parent="1" source="Q8LItwn8FTGjMNyWCQqq-55" target="Q8LItwn8FTGjMNyWCQqq-56">
          <mxGeometry relative="1" as="geometry">
            <Array as="points">
              <mxPoint x="-370" y="425" />
              <mxPoint x="-442" y="425" />
            </Array>
          </mxGeometry>
        </mxCell>
        <mxCell id="Q8LItwn8FTGjMNyWCQqq-69" style="edgeStyle=orthogonalEdgeStyle;rounded=0;orthogonalLoop=1;jettySize=auto;html=1;exitX=0.5;exitY=1;exitDx=0;exitDy=0;" edge="1" parent="1" source="Q8LItwn8FTGjMNyWCQqq-55" target="Q8LItwn8FTGjMNyWCQqq-58">
          <mxGeometry relative="1" as="geometry">
            <Array as="points">
              <mxPoint x="-370" y="425" />
              <mxPoint x="-302" y="425" />
            </Array>
          </mxGeometry>
        </mxCell>
        <mxCell id="Q8LItwn8FTGjMNyWCQqq-55" value="&lt;font style=&quot;font-size: 16px;&quot;&gt;/ids&lt;/font&gt;" style="ellipse;whiteSpace=wrap;html=1;fontSize=15;" vertex="1" parent="1">
          <mxGeometry x="-400" y="368" width="60" height="40" as="geometry" />
        </mxCell>
        <mxCell id="Q8LItwn8FTGjMNyWCQqq-56" value="&lt;font style=&quot;font-size: 15px;&quot;&gt;consumer_id&lt;br&gt;0&lt;/font&gt;" style="rounded=1;whiteSpace=wrap;html=1;" vertex="1" parent="1">
          <mxGeometry x="-490" y="445" width="95" height="40" as="geometry" />
        </mxCell>
        <mxCell id="Q8LItwn8FTGjMNyWCQqq-58" value="&lt;font style=&quot;font-size: 15px;&quot;&gt;consumer_id&lt;br&gt;n&lt;br&gt;&lt;/font&gt;" style="rounded=1;whiteSpace=wrap;html=1;" vertex="1" parent="1">
          <mxGeometry x="-350" y="445" width="95" height="40" as="geometry" />
        </mxCell>
        <mxCell id="Q8LItwn8FTGjMNyWCQqq-70" style="edgeStyle=orthogonalEdgeStyle;rounded=0;orthogonalLoop=1;jettySize=auto;html=1;exitX=0.5;exitY=1;exitDx=0;exitDy=0;" edge="1" parent="1" source="Q8LItwn8FTGjMNyWCQqq-59" target="Q8LItwn8FTGjMNyWCQqq-60">
          <mxGeometry relative="1" as="geometry" />
        </mxCell>
        <mxCell id="Q8LItwn8FTGjMNyWCQqq-71" style="edgeStyle=orthogonalEdgeStyle;rounded=0;orthogonalLoop=1;jettySize=auto;html=1;exitX=0.5;exitY=1;exitDx=0;exitDy=0;" edge="1" parent="1" source="Q8LItwn8FTGjMNyWCQqq-59" target="Q8LItwn8FTGjMNyWCQqq-61">
          <mxGeometry relative="1" as="geometry">
            <Array as="points">
              <mxPoint x="-150" y="428" />
              <mxPoint x="-97" y="428" />
            </Array>
          </mxGeometry>
        </mxCell>
        <mxCell id="Q8LItwn8FTGjMNyWCQqq-59" value="&lt;font style=&quot;font-size: 16px;&quot;&gt;offsets&lt;/font&gt;" style="ellipse;whiteSpace=wrap;html=1;fontSize=15;" vertex="1" parent="1">
          <mxGeometry x="-180" y="368" width="60" height="40" as="geometry" />
        </mxCell>
        <mxCell id="Q8LItwn8FTGjMNyWCQqq-72" style="edgeStyle=orthogonalEdgeStyle;rounded=0;orthogonalLoop=1;jettySize=auto;html=1;exitX=0.5;exitY=1;exitDx=0;exitDy=0;" edge="1" parent="1" source="Q8LItwn8FTGjMNyWCQqq-60" target="Q8LItwn8FTGjMNyWCQqq-62">
          <mxGeometry relative="1" as="geometry" />
        </mxCell>
        <mxCell id="Q8LItwn8FTGjMNyWCQqq-73" style="edgeStyle=orthogonalEdgeStyle;rounded=0;orthogonalLoop=1;jettySize=auto;html=1;exitX=0.5;exitY=1;exitDx=0;exitDy=0;entryX=0.5;entryY=0;entryDx=0;entryDy=0;" edge="1" parent="1" source="Q8LItwn8FTGjMNyWCQqq-60" target="Q8LItwn8FTGjMNyWCQqq-63">
          <mxGeometry relative="1" as="geometry" />
        </mxCell>
        <mxCell id="Q8LItwn8FTGjMNyWCQqq-60" value="&lt;font style=&quot;font-size: 15px;&quot;&gt;topic-0&lt;/font&gt;" style="rounded=1;whiteSpace=wrap;html=1;" vertex="1" parent="1">
          <mxGeometry x="-222.5" y="440" width="65" height="40" as="geometry" />
        </mxCell>
        <mxCell id="Q8LItwn8FTGjMNyWCQqq-61" value="&lt;font style=&quot;font-size: 15px;&quot;&gt;topic-n&lt;/font&gt;" style="rounded=1;whiteSpace=wrap;html=1;" vertex="1" parent="1">
          <mxGeometry x="-130" y="440" width="65" height="40" as="geometry" />
        </mxCell>
        <mxCell id="Q8LItwn8FTGjMNyWCQqq-65" style="edgeStyle=orthogonalEdgeStyle;rounded=0;orthogonalLoop=1;jettySize=auto;html=1;exitX=0.5;exitY=1;exitDx=0;exitDy=0;" edge="1" parent="1" source="Q8LItwn8FTGjMNyWCQqq-62" target="Q8LItwn8FTGjMNyWCQqq-64">
          <mxGeometry relative="1" as="geometry" />
        </mxCell>
        <mxCell id="Q8LItwn8FTGjMNyWCQqq-62" value="&lt;font style=&quot;font-size: 15px;&quot;&gt;partition&lt;br&gt;0&lt;/font&gt;" style="rounded=1;whiteSpace=wrap;html=1;" vertex="1" parent="1">
          <mxGeometry x="-270" y="510" width="65" height="40" as="geometry" />
        </mxCell>
        <mxCell id="Q8LItwn8FTGjMNyWCQqq-63" value="&lt;font style=&quot;font-size: 15px;&quot;&gt;partition&lt;br&gt;n&lt;br&gt;&lt;/font&gt;" style="rounded=1;whiteSpace=wrap;html=1;" vertex="1" parent="1">
          <mxGeometry x="-185" y="510" width="65" height="40" as="geometry" />
        </mxCell>
        <mxCell id="Q8LItwn8FTGjMNyWCQqq-64" value="&lt;font style=&quot;font-size: 13px;&quot;&gt;记录了该分区中&lt;br&gt;commited的最大offset&lt;/font&gt;" style="text;html=1;align=center;verticalAlign=middle;resizable=0;points=[];autosize=1;strokeColor=none;fillColor=none;" vertex="1" parent="1">
          <mxGeometry x="-312.5" y="600" width="150" height="40" as="geometry" />
        </mxCell>
      </root>
    </mxGraphModel>
  </diagram>
</mxfile>
